<svg width="current" height="current" viewBox="0 0 27 27" fill="none" xmlns="http://www.w3.org/2000/svg">
<path d="M19 11.5C19 11.8978 18.842 12.2794 18.5607 12.5607C18.2794 12.842 17.8978 13 17.5 13H9C8.60218 13 8.22064 12.842 7.93934 12.5607C7.65804 12.2794 7.5 11.8978 7.5 11.5C7.5 11.1022 7.65804 10.7206 7.93934 10.4393C8.22064 10.158 8.60218 10 9 10H17.5C17.8978 10 18.2794 10.158 18.5607 10.4393C18.842 10.7206 19 11.1022 19 11.5ZM17.5 15H9C8.60218 15 8.22064 15.158 7.93934 15.4393C7.65804 15.7206 7.5 16.1022 7.5 16.5C7.5 16.8978 7.65804 17.2794 7.93934 17.5607C8.22064 17.842 8.60218 18 9 18H17.5C17.8978 18 18.2794 17.842 18.5607 17.5607C18.842 17.2794 19 16.8978 19 16.5C19 16.1022 18.842 15.7206 18.5607 15.4393C18.2794 15.158 17.8978 15 17.5 15ZM26.5 13.5C26.4964 16.9467 25.1256 20.2512 22.6884 22.6884C20.2512 25.1256 16.9467 26.4964 13.5 26.5H3C2.33696 26.5 1.70107 26.2366 1.23223 25.7678C0.763392 25.2989 0.5 24.663 0.5 24V13.5C0.5 10.0522 1.86964 6.74558 4.30761 4.30761C6.74558 1.86964 10.0522 0.5 13.5 0.5C16.9478 0.5 20.2544 1.86964 22.6924 4.30761C25.1304 6.74558 26.5 10.0522 26.5 13.5ZM23.5 13.5C23.5 10.8478 22.4464 8.3043 20.5711 6.42893C18.6957 4.55357 16.1522 3.5 13.5 3.5C10.8478 3.5 8.3043 4.55357 6.42893 6.42893C4.55357 8.3043 3.5 10.8478 3.5 13.5V23.5H13.5C16.1513 23.497 18.6931 22.4425 20.5678 20.5678C22.4425 18.6931 23.497 16.1513 23.5 13.5Z" fill="currentColor"/>
</svg>
