<svg width="12" height="13" viewBox="0 0 12 13" fill="none" xmlns="http://www.w3.org/2000/svg">
<path d="M6 0.5C4.81331 0.5 3.65328 0.851894 2.66658 1.51118C1.67989 2.17047 0.910851 3.10754 0.456725 4.2039C0.00259971 5.30025 -0.11622 6.50666 0.115291 7.67054C0.346802 8.83443 0.918247 9.90352 1.75736 10.7426C2.59648 11.5818 3.66557 12.1532 4.82946 12.3847C5.99335 12.6162 7.19974 12.4974 8.2961 12.0433C9.39246 11.5891 10.3295 10.8201 10.9888 9.83342C11.6481 8.84672 12 7.68669 12 6.5C11.9983 4.90922 11.3656 3.38407 10.2408 2.25921C9.11593 1.13436 7.59078 0.50168 6 0.5ZM9.23077 6.96154H6C5.87759 6.96154 5.7602 6.91291 5.67364 6.82636C5.58709 6.7398 5.53846 6.62241 5.53846 6.5V3.26923C5.53846 3.14682 5.58709 3.02943 5.67364 2.94287C5.7602 2.85632 5.87759 2.80769 6 2.80769C6.12241 2.80769 6.2398 2.85632 6.32636 2.94287C6.41291 3.02943 6.46154 3.14682 6.46154 3.26923V6.03846H9.23077C9.35318 6.03846 9.47057 6.08709 9.55713 6.17364C9.64368 6.2602 9.69231 6.37759 9.69231 6.5C9.69231 6.62241 9.64368 6.7398 9.55713 6.82636C9.47057 6.91291 9.35318 6.96154 9.23077 6.96154Z" fill="#CECECE"/>
</svg>
