<svg width="12" height="12" viewBox="0 0 12 12" fill="none" xmlns="http://www.w3.org/2000/svg">
<path d="M6 0C4.81331 0 3.65328 0.351894 2.66658 1.01118C1.67989 1.67047 0.910851 2.60754 0.456725 3.7039C0.00259971 4.80025 -0.11622 6.00666 0.115291 7.17054C0.346802 8.33443 0.918247 9.40352 1.75736 10.2426C2.59648 11.0818 3.66557 11.6532 4.82946 11.8847C5.99335 12.1162 7.19974 11.9974 8.2961 11.5433C9.39246 11.0891 10.3295 10.3201 10.9888 9.33342C11.6481 8.34672 12 7.18669 12 6C11.9982 4.40926 11.3654 2.8842 10.2406 1.75938C9.1158 0.634562 7.59074 0.0018323 6 0ZM10.5208 3.69231H8.46404C8.20503 2.74206 7.7685 1.84943 7.1775 1.06154C7.89157 1.23307 8.56009 1.55699 9.13726 2.01107C9.71442 2.46515 10.1866 3.03867 10.5213 3.69231H10.5208ZM11.0769 6C11.0773 6.46821 11.0127 6.9342 10.8848 7.38461H8.66308C8.80462 6.46696 8.80462 5.53303 8.66308 4.61538H10.8848C11.0127 5.0658 11.0773 5.53179 11.0769 6ZM6 1.09615C6.69111 1.83607 7.20415 2.72402 7.5 3.69231H4.5C4.79555 2.72389 5.30863 1.83587 6 1.09615ZM4.5 8.30769H7.5C7.20445 9.27611 6.69137 10.1641 6 10.9038C5.30889 10.1639 4.79585 9.27598 4.5 8.30769ZM4.275 7.38461C4.11655 6.46834 4.11655 5.53166 4.275 4.61538H7.72962C7.88807 5.53166 7.88807 6.46834 7.72962 7.38461H4.275ZM7.17981 10.9385C7.77081 10.1506 8.20734 9.25794 8.46635 8.30769H10.5237C10.1886 8.96158 9.71613 9.53525 9.13855 9.98935C8.56097 10.4434 7.89198 10.7672 7.1775 10.9385H7.17981Z" fill="#CECECE"/>
</svg>
