<svg width="12" height="15" viewBox="0 0 12 15" fill="none" xmlns="http://www.w3.org/2000/svg">
<path d="M5.84375 0C4.29443 0.0017576 2.80907 0.618001 1.71354 1.71354C0.618001 2.80907 0.0017576 4.29443 0 5.84375C0 10.8441 5.3125 14.6207 5.53895 14.7787C5.62827 14.8413 5.73469 14.8749 5.84375 14.8749C5.95281 14.8749 6.05923 14.8413 6.14855 14.7787C6.375 14.6207 11.6875 10.8441 11.6875 5.84375C11.6857 4.29443 11.0695 2.80907 9.97396 1.71354C8.87843 0.618001 7.39307 0.0017576 5.84375 0ZM5.84375 3.71875C6.26404 3.71875 6.67488 3.84338 7.02434 4.07688C7.37379 4.31038 7.64616 4.64225 7.80699 5.03055C7.96783 5.41884 8.00991 5.84611 7.92792 6.25832C7.84593 6.67053 7.64354 7.04917 7.34635 7.34635C7.04916 7.64354 6.67053 7.84593 6.25832 7.92792C5.84611 8.00991 5.41884 7.96783 5.03055 7.80699C4.64225 7.64616 4.31038 7.37379 4.07688 7.02434C3.84338 6.67488 3.71875 6.26404 3.71875 5.84375C3.71875 5.28016 3.94263 4.73966 4.34115 4.34115C4.73966 3.94263 5.28016 3.71875 5.84375 3.71875Z" fill="#CECECE"/>
</svg>
