<?xml version="1.0" encoding="UTF-8"?>
<svg id="_레이어_2" data-name="레이어 2" xmlns="http://www.w3.org/2000/svg" viewBox="0 0 341.62 65.81">
  <defs>
    <style>
      .cls-1 {
        fill: #1e85cf;
      }

      .cls-2 {
        fill: none;
        stroke: #fff;
        stroke-linecap: round;
        stroke-linejoin: round;
        stroke-width: 2px;
      }

      .cls-3 {
        fill: #fff;
      }
    </style>
  </defs>
  <g id="_레이어_1-2" data-name="레이어 1">
    <g>
      <g>
        <path class="cls-1" d="M0,53.74v-30.71C0,8.77,8.77,0,23.03,0h8.77c14.31,0,23.03,8.77,23.03,23.03v30.71c0,7.95-4.66,12.06-10.97,12.06s-10.97-4.11-10.97-12.06v-3.02h-10.97v3.02c0,7.95-4.66,12.06-10.97,12.06S0,61.69,0,53.74ZM32.9,28.79v-6.86h-10.97v6.86h10.97Z"/>
        <path class="cls-1" d="M58.67,53.74v-30.71c0-14.26,8.77-23.03,23.03-23.03h8.77c14.26,0,23.03,8.77,23.03,23.03v5.76c0,12.61-8.77,21.94-23.03,21.94h-9.87v3.02c0,7.95-4.66,12.06-10.97,12.06s-10.97-4.11-10.97-12.06ZM91.58,28.79v-6.86h-10.97v6.86h10.97Z"/>
        <path class="cls-1" d="M116.8,42.77V12.06c0-7.95,4.66-12.06,10.97-12.06s10.97,4.11,10.97,12.06v31.81h8.23V12.06c0-7.95,4.66-12.06,10.97-12.06s10.97,4.11,10.97,12.06v30.71c0,14.59-9.6,23.03-23.03,23.03h-6.03c-13.44,0-23.03-8.45-23.03-23.03Z"/>
        <path class="cls-1" d="M172.73,53.74v-30.71c0-14.26,8.77-23.03,23.03-23.03h8.77c14.31,0,23.03,8.77,23.03,23.03v30.71c0,7.95-4.66,12.06-10.97,12.06s-10.97-4.11-10.97-12.06v-3.02h-10.97v3.02c0,7.95-4.66,12.06-10.97,12.06s-10.97-4.11-10.97-12.06ZM205.63,28.79v-6.86h-10.97v6.86h10.97Z"/>
        <path class="cls-1" d="M231.4,53.74v-30.71c0-14.26,8.77-23.03,23.03-23.03h8.77c14.26,0,23.03,8.77,23.03,23.03v5.76c0,12.61-8.77,21.94-23.03,21.94h-9.87v3.02c0,7.95-4.66,12.06-10.97,12.06s-10.97-4.11-10.97-12.06ZM264.3,28.79v-6.86h-10.97v6.86h10.97Z"/>
        <path class="cls-1" d="M289.52,42.77V12.06c0-7.95,4.66-12.06,10.97-12.06s10.97,4.11,10.97,12.06v31.81h8.23V12.06c0-7.95,4.66-12.06,10.97-12.06s10.97,4.11,10.97,12.06v30.71c0,14.59-9.6,23.03-23.03,23.03h-6.03c-13.44,0-23.03-8.45-23.03-23.03Z"/>
      </g>
      <rect class="cls-3" x="19.82" y="20.36" width="16.36" height="9.81" rx="2" ry="2" transform="translate(-4.29 5.79) rotate(-10.97)"/>
      <rect class="cls-3" x="78.81" y="20.36" width="16.36" height="9.81" rx="2" ry="2" transform="translate(-3.22 17.01) rotate(-10.97)"/>
      <rect class="cls-3" x="191.55" y="20.36" width="16.36" height="9.81" rx="2" ry="2" transform="translate(-1.16 38.45) rotate(-10.97)"/>
      <rect class="cls-3" x="250.54" y="20.36" width="16.36" height="9.81" rx="2" ry="2" transform="translate(-.08 49.68) rotate(-10.97)"/>
      <path class="cls-2" d="M145.56,58.08s13.45,1.67,16.17-12.85"/>
      <path class="cls-2" d="M317.49,58.08s13.45,1.67,16.17-12.85"/>
    </g>
  </g>
</svg>