<svg width="current" height="current" viewBox="0 0 15 14" fill="none" xmlns="http://www.w3.org/2000/svg">
<path d="M6.32812 4.6875C6.32812 4.45573 6.39685 4.22916 6.52562 4.03644C6.65439 3.84373 6.83741 3.69353 7.05154 3.60483C7.26567 3.51613 7.5013 3.49293 7.72862 3.53814C7.95594 3.58336 8.16475 3.69497 8.32864 3.85886C8.49253 4.02275 8.60414 4.23156 8.64936 4.45888C8.69457 4.6862 8.67137 4.92183 8.58267 5.13596C8.49397 5.35009 8.34377 5.53311 8.15106 5.66188C7.95834 5.79065 7.73177 5.85937 7.5 5.85938C7.1892 5.85938 6.89113 5.73591 6.67136 5.51614C6.45159 5.29637 6.32812 4.9983 6.32812 4.6875ZM3.51562 4.6875C3.51563 3.63078 3.93541 2.61734 4.68262 1.87012C5.42984 1.12291 6.44328 0.703125 7.5 0.703125C8.55672 0.703125 9.57016 1.12291 10.3174 1.87012C11.0646 2.61734 11.4844 3.63078 11.4844 4.6875C11.4844 8.33496 7.99746 10.3711 7.84863 10.4543C7.74244 10.5149 7.62228 10.5468 7.5 10.5468C7.37772 10.5468 7.25756 10.5149 7.15137 10.4543C7.00254 10.3711 3.51562 8.33496 3.51562 4.6875ZM4.92188 4.6875C4.92188 6.92578 6.72129 8.44922 7.5 9.00234C8.27402 8.44629 10.0781 6.91406 10.0781 4.6875C10.0781 4.00374 9.8065 3.34798 9.32301 2.86449C8.83952 2.381 8.18376 2.10938 7.5 2.10938C6.81624 2.10938 6.16048 2.381 5.67699 2.86449C5.1935 3.34798 4.92188 4.00374 4.92188 4.6875ZM12.2209 8.53125C12.1353 8.49494 12.0434 8.47596 11.9504 8.47541C11.8575 8.47485 11.7653 8.49274 11.6793 8.52803C11.5933 8.56332 11.5152 8.61531 11.4494 8.681C11.3836 8.74669 11.3315 8.82478 11.2961 8.91073C11.2607 8.99669 11.2427 9.08881 11.2431 9.18177C11.2436 9.27473 11.2624 9.36668 11.2986 9.4523C11.3348 9.53793 11.3876 9.61552 11.454 9.6806C11.5204 9.74568 11.599 9.79695 11.6854 9.83144C12.5133 10.1725 12.8906 10.5627 12.8906 10.7812C12.8906 11.0156 12.4729 11.4299 11.5564 11.782C10.4842 12.1922 9.04336 12.4219 7.5 12.4219C5.95664 12.4219 4.51582 12.1945 3.44355 11.782C2.52656 11.4299 2.10938 11.0156 2.10938 10.7812C2.10938 10.5627 2.48672 10.1725 3.31465 9.83144C3.40097 9.79695 3.4796 9.74568 3.54598 9.6806C3.61236 9.61552 3.66518 9.53793 3.70138 9.4523C3.73757 9.36668 3.75643 9.27473 3.75686 9.18177C3.75729 9.08881 3.73928 8.99669 3.70388 8.91073C3.66847 8.82478 3.61638 8.74669 3.5506 8.681C3.48482 8.61531 3.40667 8.56332 3.32067 8.52803C3.23467 8.49274 3.14252 8.47485 3.04956 8.47541C2.9566 8.47596 2.86468 8.49494 2.7791 8.53125C1.83223 8.9209 0.703125 9.62754 0.703125 10.7812C0.703125 12.7816 4.12266 13.8281 7.5 13.8281C9.21211 13.8281 10.8316 13.568 12.0615 13.0945C12.8965 12.7734 14.2969 12.0463 14.2969 10.7812C14.2969 9.62754 13.1678 8.9209 12.2209 8.53125Z" fill="currentColor"/>
</svg>
