<svg width="12" height="12" viewBox="0 0 12 12" fill="none" xmlns="http://www.w3.org/2000/svg">
<path d="M7.61539 5.30769C7.61539 5.61371 7.49382 5.9072 7.27743 6.12358C7.06104 6.33997 6.76756 6.46154 6.46154 6.46154H5.07692V4.15385H6.46154C6.76756 4.15385 7.06104 4.27541 7.27743 4.4918C7.49382 4.70819 7.61539 5.00167 7.61539 5.30769ZM12 6C12 7.18669 11.6481 8.34672 10.9888 9.33342C10.3295 10.3201 9.39246 11.0891 8.2961 11.5433C7.19974 11.9974 5.99335 12.1162 4.82946 11.8847C3.66557 11.6532 2.59648 11.0818 1.75736 10.2426C0.918247 9.40352 0.346802 8.33443 0.115291 7.17054C-0.11622 6.00666 0.00259971 4.80025 0.456725 3.7039C0.910851 2.60754 1.67989 1.67047 2.66658 1.01118C3.65328 0.351894 4.81331 0 6 0C7.59078 0.0016799 9.11593 0.63436 10.2408 1.75921C11.3656 2.88407 11.9983 4.40922 12 6ZM8.53846 5.30769C8.53846 4.75686 8.31964 4.22858 7.93015 3.83909C7.54065 3.44959 7.01237 3.23077 6.46154 3.23077H4.61539C4.49298 3.23077 4.37558 3.27939 4.28903 3.36595C4.20247 3.45251 4.15385 3.5699 4.15385 3.69231V8.30769C4.15385 8.4301 4.20247 8.54749 4.28903 8.63405C4.37558 8.7206 4.49298 8.76923 4.61539 8.76923C4.73779 8.76923 4.85519 8.7206 4.94174 8.63405C5.0283 8.54749 5.07692 8.4301 5.07692 8.30769V7.38461H6.46154C6.73429 7.38461 7.00436 7.33089 7.25634 7.22652C7.50833 7.12214 7.73729 6.96916 7.93015 6.7763C8.12301 6.58344 8.27599 6.35448 8.38037 6.10249C8.48474 5.85051 8.53846 5.58044 8.53846 5.30769Z" fill="#CECECE"/>
</svg>
