<svg width="12" height="12" viewBox="0 0 12 12" fill="none" xmlns="http://www.w3.org/2000/svg">
<path d="M11.993 9.06477C11.886 9.87779 11.4867 10.6241 10.8697 11.1642C10.2527 11.7044 9.46019 12.0015 8.64015 12C3.87607 12 5.42928e-06 8.12396 5.42928e-06 3.35991C-0.00146458 2.53988 0.295623 1.74735 0.83578 1.13035C1.37594 0.513345 2.12222 0.114064 2.93526 0.00707865C3.14085 -0.018025 3.34905 0.024036 3.52878 0.126983C3.7085 0.22993 3.85012 0.388241 3.93247 0.578284L5.1997 3.40731V3.41451C5.26275 3.55999 5.28879 3.71881 5.27549 3.8768C5.26219 4.03479 5.20997 4.18703 5.12349 4.31992C5.11269 4.33612 5.10129 4.35112 5.08929 4.36612L3.84007 5.84694C4.28948 6.76014 5.2447 7.70695 6.16991 8.15756L7.63034 6.91495C7.64468 6.90289 7.6597 6.89167 7.67534 6.88135C7.80812 6.79279 7.96088 6.73873 8.11981 6.72406C8.27873 6.70939 8.43881 6.73458 8.58555 6.79734L8.59335 6.80094L11.42 8.06756C11.6104 8.14962 11.7691 8.29111 11.8724 8.47086C11.9757 8.65061 12.018 8.85896 11.993 9.06477Z" fill="#CECECE"/>
</svg>
