<svg width="12" height="14" viewBox="0 0 12 14" fill="none" xmlns="http://www.w3.org/2000/svg">
<path d="M12 9.33333C12 9.47085 11.9473 9.60274 11.8536 9.69998C11.7598 9.79722 11.6326 9.85185 11.5 9.85185H6.5V13.4815C6.5 13.619 6.44732 13.7509 6.35355 13.8481C6.25979 13.9454 6.13261 14 6 14C5.86739 14 5.74021 13.9454 5.64645 13.8481C5.55268 13.7509 5.5 13.619 5.5 13.4815V9.85185H0.5C0.367392 9.85185 0.240215 9.79722 0.146447 9.69998C0.0526785 9.60274 0 9.47085 0 9.33333C0 9.19581 0.0526785 9.06393 0.146447 8.96668C0.240215 8.86944 0.367392 8.81481 0.5 8.81481H1.08063L2.40375 1.03704H2C1.86739 1.03704 1.74021 0.982407 1.64645 0.885166C1.55268 0.787925 1.5 0.656038 1.5 0.518519C1.5 0.380999 1.55268 0.249112 1.64645 0.151871C1.74021 0.0546296 1.86739 0 2 0H10C10.1326 0 10.2598 0.0546296 10.3536 0.151871C10.4473 0.249112 10.5 0.380999 10.5 0.518519C10.5 0.656038 10.4473 0.787925 10.3536 0.885166C10.2598 0.982407 10.1326 1.03704 10 1.03704H9.59625L10.9194 8.81481H11.5C11.6326 8.81481 11.7598 8.86944 11.8536 8.96668C11.9473 9.06393 12 9.19581 12 9.33333Z" fill="#CECECE"/>
</svg>
