<svg width="42" height="55" viewBox="0 0 42 55" fill="none" xmlns="http://www.w3.org/2000/svg">
<path fill-rule="evenodd" clip-rule="evenodd" d="M21 0C32.598 0 42 9.40202 42 21C42 22.4157 41.8599 23.7986 41.5929 25.1358C39.7394 39.1032 21.1104 55 21.1104 55C21.1104 55 5.25689 41.4717 1.34456 28.4096C0.475507 26.1054 0 23.6083 0 21C0 9.40202 9.40202 0 21 0Z" fill="#1E85CF"/>
<path d="M37 20.5C37 11.9396 30.0604 5 21.5 5C12.9396 5 6 11.9396 6 20.5C6 29.0604 12.9396 36 21.5 36C30.0604 36 37 29.0604 37 20.5Z" fill="white"/>
<g clip-path="url(#clip0_259_24)">
<path d="M30.7778 25.2278C30.2603 25.377 29.8859 25.6067 29.5776 25.7904C29.1702 26.0544 28.9169 26.2037 28.3113 26.2037C27.7057 26.2037 27.4525 26.043 27.045 25.7904C26.5495 25.4804 25.8669 25.0556 24.6446 25.0556C23.4224 25.0556 22.7397 25.4804 22.2442 25.7904C21.8368 26.0544 21.5946 26.2037 20.978 26.2037C20.3724 26.2037 20.1191 26.043 19.7117 25.7904C19.2162 25.4804 18.5335 25.0556 17.3113 25.0556C16.0891 25.0556 15.4064 25.4804 14.9109 25.7904C14.5035 26.0544 14.2613 26.2037 13.6446 26.2037C13.039 26.2037 12.7858 26.043 12.3784 25.7904C12.1251 25.6296 11.8278 25.4459 11.4424 25.2967C11.2807 25.2358 11.1073 25.2162 10.9368 25.2395C10.7663 25.2628 10.6037 25.3283 10.4625 25.4306C10.3212 25.5329 10.2055 25.669 10.1251 25.8275C10.0446 25.9859 10.0017 26.1622 10 26.3415L10 26.4793C10 26.9385 10.2973 27.3059 10.7047 27.4667C10.8919 27.5356 11.0571 27.6389 11.2663 27.7652C11.7618 28.0752 12.4444 28.5 13.6667 28.5C14.8889 28.5 15.5716 28.0752 16.0671 27.7652C16.4745 27.5011 16.7277 27.3519 17.3333 27.3519C17.9389 27.3519 18.1922 27.5126 18.5996 27.7652C19.0951 28.0752 19.7778 28.5 21 28.5C22.2222 28.5 22.9049 28.0752 23.4004 27.7652C23.8078 27.5011 24.0501 27.3519 24.6667 27.3519C25.2723 27.3519 25.5255 27.5126 25.9329 27.7652C26.4284 28.0752 27.1111 28.5 28.3333 28.5C29.5556 28.5 30.2382 28.0752 30.7337 27.7652C30.9319 27.6389 31.0971 27.5356 31.2843 27.4552C31.7027 27.3059 32 26.9385 32 26.4793L32 26.2152C32 25.5493 31.3944 25.0441 30.7778 25.2278Z" fill="#1E85CF"/>
</g>
<path d="M29.2428 21.782C30.6875 21.782 31.8599 20.507 31.8599 18.943C31.8599 17.3775 30.6875 16.109 29.2428 16.109C27.7958 16.109 26.6248 17.378 26.6248 18.943C26.6248 20.507 27.6918 21.782 29.2428 21.782ZM14 23.378C14.203 23.4305 14.3946 23.507 14.5766 23.596C15.0016 23.805 15.4621 23.9142 15.9282 23.9165C16.4095 23.9165 16.8765 23.7975 17.2862 23.596C17.7249 23.3771 18.2009 23.262 18.6833 23.258C19.1773 23.258 19.6531 23.389 20.0748 23.596C20.5014 23.8052 20.9636 23.9144 21.4314 23.9165C21.9081 23.9165 22.3747 23.7975 22.7844 23.596C23.2232 23.3772 23.6994 23.262 24.1819 23.258C24.6741 23.258 25.1512 23.389 25.5789 23.596C25.9895 23.797 26.4497 23.9165 26.9319 23.9165C27.2825 23.9165 27.6203 23.852 27.9388 23.7435L23.5732 15.2155L28.6511 14.212C29.3963 14.058 29.9372 13.424 29.9372 12.6125C29.9372 11.7175 29.2648 11 28.4421 11L28.2725 11.0055L20.4286 12.5515C19.8781 12.688 19.1489 13.561 19.5642 14.632L19.6311 14.8045L21.678 18.806L14 23.378Z" fill="#1E85CF"/>
<path d="M31.8599 18.943C31.8599 20.507 30.6875 21.782 29.2428 21.782C27.6918 21.782 26.6248 20.507 26.6248 18.943C26.6248 17.378 27.7958 16.109 29.2428 16.109C30.6875 16.109 31.8599 17.3775 31.8599 18.943Z" fill="#1E85CF"/>
<defs>
<clipPath id="clip0_259_24">
<rect width="24" height="24" fill="white" transform="translate(9.5 8.5)"/>
</clipPath>
</defs>
</svg>
