<svg width="13" height="13" viewBox="0 0 13 13" fill="none" xmlns="http://www.w3.org/2000/svg">
<path d="M7.58279 2.36377C7.58279 1.89626 7.7098 1.43925 7.94776 1.05053C8.18572 0.661811 8.52394 0.358841 8.91965 0.179932C9.31536 0.00102418 9.75078 -0.0457864 10.1709 0.0454202C10.5909 0.136627 10.9768 0.361754 11.2797 0.692333C11.5825 1.02291 11.7888 1.4441 11.8724 1.90262C11.9559 2.36115 11.913 2.83643 11.7491 3.26835C11.5852 3.70027 11.3076 4.06944 10.9515 4.32917C10.5954 4.58891 10.1767 4.72754 9.74838 4.72754C9.17403 4.72754 8.62321 4.4785 8.21708 4.03521C7.81095 3.59192 7.58279 2.99068 7.58279 2.36377ZM12.1095 10.651C9.95546 12.6004 8.47407 11.7228 6.75852 10.7057C4.9577 9.63901 2.91731 8.4298 0.198821 10.8896C0.143493 10.9389 0.0976612 10.9998 0.0639689 11.0685C0.0302766 11.1373 0.00938987 11.2127 0.00251322 11.2903C-0.00436343 11.3679 0.00290584 11.4463 0.023902 11.5208C0.0448982 11.5954 0.079206 11.6647 0.124847 11.7247C0.170488 11.7847 0.22656 11.8342 0.28983 11.8705C0.353099 11.9067 0.422315 11.9289 0.493486 11.9358C0.564658 11.9427 0.636377 11.9342 0.704508 11.9107C0.77264 11.8872 0.835837 11.8492 0.890455 11.7989C3.04454 9.84954 4.52593 10.7278 6.24148 11.7442C7.26405 12.35 8.36308 13 9.62047 13C10.5774 13 11.6263 12.6225 12.8012 11.5596C12.9117 11.4595 12.9813 11.3155 12.9947 11.1594C13.008 11.0033 12.964 10.8478 12.8722 10.7271C12.7805 10.6064 12.6486 10.5304 12.5056 10.5159C12.3626 10.5013 12.2201 10.5494 12.1095 10.6495V10.651ZM0.198821 7.93562C0.143493 7.98497 0.0976612 8.04579 0.0639689 8.11456C0.0302766 8.18334 0.00938987 8.25871 0.00251322 8.33634C-0.00436343 8.41397 0.00290584 8.49232 0.023902 8.56686C0.0448982 8.64141 0.079206 8.71069 0.124847 8.77069C0.170488 8.8307 0.22656 8.88025 0.28983 8.91649C0.353099 8.95273 0.422315 8.97494 0.493486 8.98184C0.564658 8.98874 0.636377 8.9802 0.704508 8.9567C0.77264 8.9332 0.835837 8.89522 0.890455 8.84494C3.04454 6.8963 4.52593 7.77385 6.24148 8.79027C7.26405 9.39599 8.36308 10.046 9.62047 10.046C10.5774 10.046 11.6263 9.66856 12.8012 8.6056C12.8565 8.55625 12.9023 8.49544 12.936 8.42666C12.9697 8.35789 12.9906 8.28251 12.9975 8.20488C13.0044 8.12725 12.9971 8.04891 12.9761 7.97436C12.9551 7.89981 12.9208 7.83054 12.8752 7.77053C12.8295 7.71053 12.7734 7.66098 12.7102 7.62474C12.6469 7.5885 12.5777 7.56629 12.5065 7.55939C12.4353 7.55248 12.3636 7.56103 12.2955 7.58452C12.2274 7.60802 12.1642 7.64601 12.1095 7.69629C11.7181 8.06318 11.2783 8.3635 10.8048 8.58714L7.16118 4.61157C6.509 3.89653 5.73343 3.32971 4.8793 2.94389C4.02517 2.55806 3.10944 2.36089 2.18507 2.36377H0.544638C0.401051 2.36377 0.263344 2.42603 0.161813 2.53685C0.0602813 2.64768 0.00324135 2.79799 0.00324135 2.95471C0.00324135 3.11144 0.0602813 3.26175 0.161813 3.37257C0.263344 3.4834 0.401051 3.54566 0.544638 3.54566H2.18507C3.17462 3.54359 4.14893 3.81174 5.01928 4.3257L3.01408 6.51293C2.15665 6.60083 1.22612 7.00563 0.198821 7.93488V7.93562Z" fill="#CECECE"/>
</svg>
