<svg width="42" height="42" viewBox="0 0 42 42" fill="none" xmlns="http://www.w3.org/2000/svg">
<circle cx="21" cy="21" r="17" fill="white" stroke="#D42528" stroke-width="6"/>
<path d="M25.6952 25.949C25.0556 26.5866 24.3 27.0962 23.4693 27.4505C21.9735 28.082 20.3049 28.1741 18.7487 27.7113C17.1925 27.2484 15.8455 26.2593 14.938 24.913L12.0365 26.8712C12.7933 27.988 13.756 28.9502 14.8732 29.7062C16.0101 30.4751 17.2875 31.0121 18.6323 31.2865C20.713 31.7101 22.8731 31.4967 24.8308 30.674C26.0766 30.1453 27.2095 29.3825 28.168 28.427C28.644 27.9527 29.078 27.4277 29.4525 26.8712L26.551 24.913C26.2984 25.284 26.0119 25.6309 25.6952 25.949Z" fill="#D42528"/>
<path d="M21 3.5C11.3505 3.5 3.5 11.3505 3.5 21C3.5 30.6495 11.3505 38.5 21 38.5C30.6495 38.5 38.5 30.6495 38.5 21C38.5 11.3505 30.6495 3.5 21 3.5ZM21 7C26.1678 7 30.6792 9.82275 33.1065 14H8.8935C11.3207 9.82275 15.8322 7 21 7ZM21 35C13.2808 35 7 28.7192 7 21C7 19.7908 7.1715 18.6217 7.462 17.5H8.75V19.25C8.75 20.1783 9.11875 21.0685 9.77513 21.7249C10.4315 22.3813 11.3217 22.75 12.25 22.75H15.75C16.6783 22.75 17.5685 22.3813 18.2249 21.7249C18.8813 21.0685 19.25 20.1783 19.25 19.25H22.75C22.75 20.1783 23.1187 21.0685 23.7751 21.7249C24.4315 22.3813 25.3217 22.75 26.25 22.75H29.75C30.6783 22.75 31.5685 22.3813 32.2249 21.7249C32.8813 21.0685 33.25 20.1783 33.25 19.25V17.5H34.538C34.8285 18.6217 35 19.7908 35 21C35 28.7192 28.7192 35 21 35Z" fill="#D42528"/>
</svg>
