<svg width="5" height="5" viewBox="0 0 5 5" fill="none" xmlns="http://www.w3.org/2000/svg">
<circle cx="2.49998" cy="2.49998" r="1.91667" fill="white" stroke="#D42528" stroke-width="0.5"/>
<path d="M3.05896 3.08915C2.98281 3.16506 2.89287 3.22573 2.79396 3.2679C2.6159 3.34308 2.41725 3.35405 2.23199 3.29895C2.04673 3.24385 1.88637 3.12609 1.77834 2.96582L1.43292 3.19895C1.52301 3.33189 1.63763 3.44644 1.77063 3.53645C1.90597 3.62797 2.05804 3.6919 2.21813 3.72457C2.46584 3.775 2.723 3.74959 2.95605 3.65165C3.10436 3.58871 3.23923 3.4979 3.35334 3.38415C3.41001 3.3277 3.46167 3.2652 3.50626 3.19895L3.16084 2.96582C3.13077 3.00999 3.09666 3.05128 3.05896 3.08915Z" fill="#D42528"/>
<path d="M2.49999 0.416656C1.35124 0.416656 0.416656 1.35124 0.416656 2.49999C0.416656 3.64874 1.35124 4.58332 2.49999 4.58332C3.64874 4.58332 4.58332 3.64874 4.58332 2.49999C4.58332 1.35124 3.64874 0.416656 2.49999 0.416656ZM2.49999 0.833323C3.1152 0.833323 3.65228 1.16936 3.94124 1.66666H1.05874C1.3477 1.16936 1.88478 0.833323 2.49999 0.833323ZM2.49999 4.16666C1.58103 4.16666 0.833323 3.41895 0.833323 2.49999C0.833323 2.35603 0.85374 2.21686 0.888323 2.08332H1.04166V2.29166C1.04166 2.40216 1.08556 2.50814 1.1637 2.58628C1.24184 2.66442 1.34782 2.70832 1.45832 2.70832H1.87499C1.9855 2.70832 2.09148 2.66442 2.16962 2.58628C2.24776 2.50814 2.29166 2.40216 2.29166 2.29166H2.70832C2.70832 2.40216 2.75222 2.50814 2.83036 2.58628C2.9085 2.66442 3.01448 2.70832 3.12499 2.70832H3.54166C3.65216 2.70832 3.75814 2.66442 3.83628 2.58628C3.91442 2.50814 3.95832 2.40216 3.95832 2.29166V2.08332H4.11166C4.14624 2.21686 4.16666 2.35603 4.16666 2.49999C4.16666 3.41895 3.41895 4.16666 2.49999 4.16666Z" fill="#D42528"/>
</svg>
